<?xml version="1.0" encoding="UTF-8"?>
<!DOCTYPE svg PUBLIC "-//W3C//DTD SVG 1.1//EN" "http://www.w3.org/Graphics/SVG/1.1/DTD/svg11.dtd">
<!-- Creator: CorelDRAW 2021 (64 Bit) -->
<svg xmlns="http://www.w3.org/2000/svg" xml:space="preserve" width="68.7958mm" height="8.5172mm" version="1.1" style="shape-rendering:geometricPrecision; text-rendering:geometricPrecision; image-rendering:optimizeQuality; fill-rule:evenodd; clip-rule:evenodd"
viewBox="0 0 274337.01 33964.04"
 xmlns:xlink="http://www.w3.org/1999/xlink"
 xmlns:xodm="http://www.corel.com/coreldraw/odm/2003">
 <defs>
  <style type="text/css">
   <![CDATA[
    .fil1 {fill:#FEFEFE;fill-rule:nonzero}
    .fil0 {fill:#00AFEF;fill-rule:nonzero}
   ]]>
  </style>
 </defs>
 <g id="Camada_x0020_1">
  <metadata id="CorelCorpID_0Corel-Layer"/>
  <g id="_1999570829248">
   <g>
    <path class="fil0" d="M48721.32 33840.02l0 90.92 -5164.47 14.36c-4007.24,-4006.44 -8151.66,-8337.48 -12158.5,-12343.53 1357.01,82.94 2993.17,-156.72 4529.63,-754.87 3973.34,3970.55 8854.29,8995.05 12793.34,12993.12z"/>
    <path class="fil1" d="M-0 0l32173.96 0c11974.66,0 12963.22,21076.99 -1011.68,21076.99l-1232.2 0 12524.97 12713.59 0 147.94 -8483.83 25.52 -19356.3 -19343.93 -386.81 -399.57 386.81 -0.8 16726.81 0c4992.2,0 4863,-7278.75 0,-7278.75l-19709.61 0 -2704.46 1974.71 -8927.66 -8915.7z"/>
   </g>
   <g>
    <path class="fil1" d="M55291.06 14559.89l5826.43 0c474.54,0 879.29,-133.19 1211.46,-399.97 334.57,-266.38 500.46,-591.77 500.46,-970.61 0,-378.83 -165.89,-701.84 -500.46,-968.21 -332.18,-269.17 -736.93,-402.36 -1211.46,-402.36l-5826.43 0 0 2741.14zm3447.37 1370.57l-3440.59 0 -6.78 3597.7c0,343.74 -171.07,514.41 -512.42,514.41l-685.49 0c-343.74,0 -514.41,-170.67 -514.41,-514.41l0 -8565.58c0,-341.35 170.67,-514.41 514.41,-514.41l7024.33 0c944.69,0 1751.8,268.77 2420.53,802.33 669.14,535.55 1005.7,1181.16 1005.7,1938.82 0,758.06 -336.56,1405.66 -1005.7,1939.22 -668.74,535.55 -1475.85,801.93 -2420.53,801.93l-269.17 0 3351.66 3082.89c229.29,229.29 343.74,397.57 343.74,507.63 0,348.52 -173.07,521.59 -514.41,521.59l-514.41 0c-229.29,0 -514.81,-170.67 -856.16,-514.41l-3920.31 -3597.7z"/>
    <path id="_1" class="fil1" d="M68160.16 13189.32c0,-757.66 334.57,-1403.27 1003.31,-1938.82 669.14,-533.55 1478.24,-802.33 2423.33,-802.33l7023.93 0c341.35,0 514.41,173.07 514.41,514.41l0 343.74c0,341.75 -173.07,512.42 -514.41,512.42l-7023.93 0c-474.94,0 -879.29,133.19 -1213.86,402.36 -332.18,266.38 -500.46,589.38 -500.46,968.21l0 1370.57 7367.67 0c341.35,0 514.41,170.67 514.41,514.81l0 341.35c0,343.74 -173.07,514.41 -514.41,514.41l-7367.67 0 0 1370.97c0,378.83 168.28,701.44 500.46,970.61 334.57,266.38 738.92,399.97 1213.86,399.97l7023.93 0c341.35,0 514.41,170.67 514.41,514.41l0 341.75c0,343.74 -173.07,514.41 -514.41,514.41l-7023.93 0c-945.08,0 -1754.19,-266.78 -2423.33,-802.33 -668.74,-533.16 -1003.31,-1181.16 -1003.31,-1938.82l0 -4112.12z"/>
    <path id="_2" class="fil1" d="M82748.76 10838.57c-4.79,-16.35 -7.18,-35.09 -7.18,-53.83 0,-224.51 170.67,-336.56 514.41,-336.56l685.49 0c114.45,0 341.35,173.07 685.49,514.41l7365.28 6790.26 0 -6790.26c0,-341.35 170.67,-514.41 514.41,-514.41l685.49 0c341.35,0 514.41,173.07 514.41,514.41l0 8558.4c0,348.52 -173.07,521.59 -514.41,521.59l-685.49 0c-114.45,0 -343.74,-170.67 -685.09,-514.41l-7367.67 -6935.41 0 6935.41c0,343.74 -171.07,514.41 -512.42,514.41l-685.49 0c-343.74,0 -514.41,-170.67 -514.41,-514.41l0 -8565.58c0,-39.88 2.39,-81.75 7.18,-124.02z"/>
    <path id="_3" class="fil1" d="M99858.39 17986.52l-823.06 1541.64c-226.9,343.74 -456.19,514.41 -683.09,514.41l-514.81 0c-343.74,0 -514.41,-168.28 -514.41,-507.63 0,-119.23 56.23,-292.3 170.67,-521.59l4455.86 -8050.77c112.45,-341.35 285.52,-514.41 512.42,-514.41l685.09 0c229.29,0 399.97,173.07 514.81,514.41l4453.06 8057.95c114.85,224.51 173.07,392.79 173.07,507.63 0,343.74 -173.07,514.41 -514.41,514.41l-514.41 0c-229.29,0 -456.19,-170.67 -685.49,-514.41l-821.07 -1541.64 -5894.22 0zm5166.86 -1370.57l-2219.55 -4179.91 -2219.95 4179.91 4439.51 0z"/>
    <path id="_4" class="fil1" d="M111911.61 10838.57c-4.79,-16.35 -7.18,-35.09 -7.18,-53.83 0,-224.51 170.67,-336.56 514.41,-336.56l685.49 0c114.45,0 341.35,173.07 685.49,514.41l7365.28 6790.26 0 -6790.26c0,-341.35 170.67,-514.41 514.41,-514.41l685.49 0c341.35,0 514.41,173.07 514.41,514.41l0 8558.4c0,348.52 -173.07,521.59 -514.41,521.59l-685.49 0c-114.45,0 -343.74,-170.67 -685.09,-514.41l-7367.67 -6935.41 0 6935.41c0,343.74 -171.07,514.41 -512.42,514.41l-685.49 0c-343.74,0 -514.41,-170.67 -514.41,-514.41l0 -8565.58c0,-39.88 2.39,-81.75 7.18,-124.02z"/>
    <path class="fil0" d="M132480.96 14559.89l5826.43 0c474.54,0 879.29,-133.19 1211.46,-399.97 334.57,-266.38 500.46,-591.77 500.46,-970.61 0,-378.83 -165.89,-701.84 -500.46,-968.21 -332.18,-269.17 -736.93,-402.36 -1211.46,-402.36l-5826.43 0 0 2741.14zm3447.37 1370.57l-3440.59 0 -6.78 3597.7c0,343.74 -171.07,514.41 -512.42,514.41l-685.49 0c-343.74,0 -514.41,-170.67 -514.41,-514.41l0 -8565.58c0,-341.35 170.67,-514.41 514.41,-514.41l7024.33 0c944.69,0 1751.8,268.77 2420.53,802.33 669.14,535.55 1005.7,1181.16 1005.7,1938.82 0,758.06 -336.56,1405.66 -1005.7,1939.22 -668.74,535.55 -1475.85,801.93 -2420.53,801.93l-269.17 0 3351.66 3082.89c229.29,229.29 343.74,397.57 343.74,507.63 0,348.52 -173.07,521.59 -514.41,521.59l-514.41 0c-229.29,0 -514.81,-170.67 -856.16,-514.41l-3920.31 -3597.7z"/>
    <path id="_1_0" class="fil0" d="M147062.39 17301.43c0,378.83 168.28,701.44 500.46,970.61 334.57,266.38 738.92,399.97 1213.86,399.97l4112.12 0c474.54,0 879.29,-133.59 1211.46,-399.97 334.57,-269.17 500.46,-591.77 500.46,-970.61l0 -4112.12c0,-378.83 -165.89,-701.84 -500.46,-968.21 -332.18,-269.17 -736.93,-402.36 -1211.46,-402.36l-4112.12 0c-474.94,0 -879.29,133.19 -1213.86,402.36 -332.18,266.38 -500.46,589.38 -500.46,968.21l0 4112.12zm9252.66 0c0,757.66 -336.56,1405.66 -1005.7,1938.82 -668.74,535.55 -1475.85,802.33 -2420.53,802.33l-4112.12 0c-945.08,0 -1754.19,-266.78 -2423.33,-802.33 -668.74,-533.16 -1003.31,-1181.16 -1003.31,-1938.82l0 -4112.12c0,-757.66 334.57,-1403.27 1003.31,-1938.82 669.14,-533.55 1478.24,-802.33 2423.33,-802.33l4112.12 0c944.69,0 1751.8,268.77 2420.53,802.33 669.14,535.55 1005.7,1181.16 1005.7,1938.82l0 4112.12z"/>
    <path id="_2_1" class="fil0" d="M161643.81 13025.42l0 6502.74c0,343.74 -171.07,514.41 -512.42,514.41l-685.49 0c-343.74,0 -514.41,-170.67 -514.41,-514.41l0 -8565.58c0,-341.35 170.67,-514.41 514.41,-514.41l1197.91 0c228.89,0 458.19,173.07 685.09,514.41l3770.37 7091.73 3768.38 -7091.73c228.89,-341.35 455.79,-514.41 685.09,-514.41l1199.9 0c341.75,0 512.42,173.07 512.42,514.41l0 8565.58c0,343.74 -170.67,514.41 -512.42,514.41l-685.09 0c-344.14,0 -514.81,-170.67 -514.81,-514.41l0 -6509.52 -3597.3 6509.52c-114.45,343.74 -285.12,514.41 -514.41,514.41l-685.49 0c-226.9,0 -399.97,-170.67 -512.02,-514.41l-3599.7 -6502.74z"/>
    <path id="_3_2" class="fil0" d="M178418.87 17986.52l-823.06 1541.64c-226.9,343.74 -456.19,514.41 -683.09,514.41l-514.81 0c-343.74,0 -514.41,-168.28 -514.41,-507.63 0,-119.23 56.23,-292.3 170.67,-521.59l4455.86 -8050.77c112.45,-341.35 285.52,-514.41 512.42,-514.41l685.09 0c229.29,0 399.97,173.07 514.81,514.41l4453.06 8057.95c114.85,224.51 173.07,392.79 173.07,507.63 0,343.74 -173.07,514.41 -514.41,514.41l-514.41 0c-229.29,0 -456.19,-170.67 -685.49,-514.41l-821.07 -1541.64 -5894.22 0zm5166.86 -1370.57l-2219.55 -4179.91 -2219.95 4179.91 4439.51 0z"/>
    <path id="_4_3" class="fil0" d="M193891.54 20042.58c-945.08,0 -1754.19,-266.78 -2423.33,-802.33 -668.74,-533.16 -1003.31,-1181.16 -1003.31,-1938.82l0 -4112.12c0,-757.66 334.57,-1403.27 1003.31,-1938.82 669.14,-533.55 1478.24,-802.33 2423.33,-802.33l7023.93 0c341.35,0 514.41,173.07 514.41,514.41l0 343.74c0,341.75 -173.07,512.42 -514.41,512.42l-7023.93 0c-474.94,0 -879.29,133.19 -1213.86,402.36 -332.18,266.38 -500.46,589.38 -500.46,968.21l0 4112.12c0,378.83 168.28,701.44 500.46,970.61 334.57,266.38 738.92,399.97 1213.86,399.97l5824.04 0 0 -3597.3c0,-344.14 170.67,-514.81 514.41,-514.81l685.49 0c341.35,0 514.41,170.67 514.41,514.81l0 4453.46c0,343.74 -173.07,514.41 -514.41,514.41l-7023.93 0z"/>
    <path id="_5" class="fil0" d="M205053.51 10838.57c-4.79,-16.35 -7.18,-35.09 -7.18,-53.83 0,-224.51 170.67,-336.56 514.41,-336.56l685.49 0c114.45,0 341.35,173.07 685.49,514.41l7365.28 6790.26 0 -6790.26c0,-341.35 170.67,-514.41 514.41,-514.41l685.49 0c341.35,0 514.41,173.07 514.41,514.41l0 8558.4c0,348.52 -173.07,521.59 -514.41,521.59l-685.49 0c-114.45,0 -343.74,-170.67 -685.09,-514.41l-7367.67 -6935.41 0 6935.41c0,343.74 -171.07,514.41 -512.42,514.41l-685.49 0c-343.74,0 -514.41,-170.67 -514.41,-514.41l0 -8565.58c0,-39.88 2.39,-81.75 7.18,-124.02z"/>
    <path id="_6" class="fil0" d="M221340.08 17301.43c0,378.83 168.28,701.44 500.46,970.61 334.57,266.38 738.92,399.97 1213.86,399.97l4112.12 0c474.54,0 879.29,-133.59 1211.46,-399.97 334.57,-269.17 500.46,-591.77 500.46,-970.61l0 -4112.12c0,-378.83 -165.89,-701.84 -500.46,-968.21 -332.18,-269.17 -736.93,-402.36 -1211.46,-402.36l-4112.12 0c-474.94,0 -879.29,133.19 -1213.86,402.36 -332.18,266.38 -500.46,589.38 -500.46,968.21l0 4112.12zm9252.66 0c0,757.66 -336.56,1405.66 -1005.7,1938.82 -668.74,535.55 -1475.85,802.33 -2420.53,802.33l-4112.12 0c-945.08,0 -1754.19,-266.78 -2423.33,-802.33 -668.74,-533.16 -1003.31,-1181.16 -1003.31,-1938.82l0 -4112.12c0,-757.66 334.57,-1403.27 1003.31,-1938.82 669.14,-533.55 1478.24,-802.33 2423.33,-802.33l4112.12 0c944.69,0 1751.8,268.77 2420.53,802.33 669.14,535.55 1005.7,1181.16 1005.7,1938.82l0 4112.12z"/>
    <path id="_7" class="fil0" d="M234209.18 10962.59c0,-341.35 170.67,-514.41 514.41,-514.41l685.49 0c341.35,0 512.42,173.07 512.42,514.41l0 6338.85c0,378.83 168.28,701.44 500.46,970.61 334.57,266.38 738.92,399.97 1213.86,399.97l7023.93 0c341.35,0 514.41,170.67 514.41,514.41l0 341.75c0,343.74 -173.07,514.41 -514.41,514.41l-7023.93 0c-945.08,0 -1754.19,-266.78 -2423.33,-802.33 -668.74,-533.16 -1003.31,-1181.16 -1003.31,-1938.82l0 -6338.85z"/>
    <path id="_8" class="fil0" d="M248790.61 10962.59c0,-341.35 170.67,-514.41 514.41,-514.41l685.49 0c341.35,0 512.42,173.07 512.42,514.41l0 6338.85c0,378.83 168.28,701.44 500.46,970.61 334.57,266.38 738.92,399.97 1213.86,399.97l7023.93 0c341.35,0 514.41,170.67 514.41,514.41l0 341.75c0,343.74 -173.07,514.41 -514.41,514.41l-7023.93 0c-945.08,0 -1754.19,-266.78 -2423.33,-802.33 -668.74,-533.16 -1003.31,-1181.16 -1003.31,-1938.82l0 -6338.85z"/>
    <path id="_9" class="fil0" d="M265084.35 17301.43c0,378.83 168.28,701.44 500.46,970.61 334.57,266.38 738.92,399.97 1213.86,399.97l4112.12 0c474.54,0 879.29,-133.59 1211.46,-399.97 334.57,-269.17 500.46,-591.77 500.46,-970.61l0 -4112.12c0,-378.83 -165.89,-701.84 -500.46,-968.21 -332.18,-269.17 -736.93,-402.36 -1211.46,-402.36l-4112.12 0c-474.94,0 -879.29,133.19 -1213.86,402.36 -332.18,266.38 -500.46,589.38 -500.46,968.21l0 4112.12zm9252.66 0c0,757.66 -336.56,1405.66 -1005.7,1938.82 -668.74,535.55 -1475.85,802.33 -2420.53,802.33l-4112.12 0c-945.08,0 -1754.19,-266.78 -2423.33,-802.33 -668.74,-533.16 -1003.31,-1181.16 -1003.31,-1938.82l0 -4112.12c0,-757.66 334.57,-1403.27 1003.31,-1938.82 669.14,-533.55 1478.24,-802.33 2423.33,-802.33l4112.12 0c944.69,0 1751.8,268.77 2420.53,802.33 669.14,535.55 1005.7,1181.16 1005.7,1938.82l0 4112.12z"/>
   </g>
   <g>
    <path class="fil1" d="M119271.31 27212.46l0 -622.08 -1157.63 0 0 -488.09 1684.8 0 0 1275.27c-204.57,352.91 -472.14,623.28 -801.53,812.29 -329.38,187.42 -703.43,281.93 -1120.54,281.93 -635.24,0 -1160.02,-209.75 -1574.34,-628.46 -413.52,-418.31 -620.88,-949.87 -620.88,-1593.88 0,-645.61 207.36,-1178.37 622.08,-1597.07 415.92,-418.31 939.5,-628.46 1571.95,-628.46 391.99,0 750.49,85.34 1073.09,257.21 323,171.87 585.39,417.11 787.17,734.93l-440.64 314.63c-133.99,-253.22 -325.4,-452.6 -577.42,-595.36 -250.43,-143.16 -531.56,-215.34 -841.01,-215.34 -476.13,0 -871.31,163.89 -1183.55,490.49 -312.24,326.99 -468.55,740.12 -468.55,1238.98 0,499.66 156.32,913.18 468.55,1238.58 312.24,325.4 707.42,488.09 1183.55,488.09 297.88,0 561.47,-64.6 793.95,-191.81 230.89,-128.4 431.47,-318.62 600.95,-571.84z"/>
    <path id="_1_4" class="fil1" d="M121327.37 26448.82l1745.02 0c177.05,0 312.24,-38.28 405.55,-115.64 92.91,-77.36 140.37,-187.42 140.37,-331.78 0,-143.16 -47.45,-253.22 -140.37,-328.19 -93.31,-76.17 -228.5,-114.05 -405.55,-114.05l-1745.02 0 0 889.66zm0 480.12l0 1432.78 -512.02 0 0 -3275.1 2257.04 0c335.76,0 598.15,81.35 788.37,242.85 190.21,161.5 284.72,385.61 284.72,673.12 0,232.08 -74.57,434.26 -225.7,604.93 -149.54,170.67 -344.94,275.55 -586.19,313.43l914.38 1440.76 -557.48 0 -931.93 -1432.78 -1431.19 0z"/>
    <path id="_2_5" class="fil1" d="M125497.3 27094.43l1283.24 0 -638.03 -1258.52 -645.21 1258.52zm-1190.33 1267.29l1670.45 -3282.67 322.6 0 1683.61 3282.67 -549.9 0 -426.29 -834.63 -1733.45 0 -423.49 834.63 -543.52 0z"/>
    <path id="_3_6" class="fil1" d="M128992.52 26448.82l1873.42 0c174.66,0 309.84,-38.28 402.76,-115.64 93.31,-77.36 140.37,-187.42 140.37,-331.78 0,-140.37 -44.26,-249.23 -134.78,-326.99 -89.32,-77.36 -218.13,-115.24 -384.81,-115.24l-1896.95 0 0 889.66zm0 480.12l0 1432.78 -512.02 0 0 -3282.67 2385.44 0c338.56,0 600.95,79.75 788.77,240.06 187.42,159.91 281.93,385.61 281.93,675.52 0,274.35 -92.91,498.86 -279.54,673.12 -187.42,174.66 -432.67,261.19 -736.13,261.19l-1928.45 0z"/>
    <polygon id="_4_7" class="fil1" points="133174.03,26834.43 133174.03,28361.72 132662.4,28361.72 132662.4,25079.04 133174.03,25079.04 133174.03,26354.31 135480.51,26354.31 135480.51,25079.04 135992.53,25079.04 135992.53,28361.72 135480.51,28361.72 135480.51,26834.43 "/>
    <polygon id="_5_8" class="fil1" points="137117.86,28361.72 137117.86,25071.07 137637.46,25071.07 137637.46,28361.72 "/>
    <path id="_6_9" class="fil1" d="M142244.45 27558.6c-186.23,293.89 -431.47,518.4 -736.13,673.12 -303.07,155.12 -649.2,232.48 -1036.4,232.48 -576.22,0 -1051.16,-162.7 -1424.81,-489.69 -372.85,-326.59 -559.08,-741.31 -559.08,-1242.57 0,-502.45 186.23,-917.17 559.08,-1246.16 373.65,-329.38 848.58,-493.68 1424.81,-493.68 359.69,0 685.09,66.99 977.39,202.18 292.7,133.99 527.57,324.2 707.42,569.44l-408.34 283.53c-134.78,-186.23 -313.43,-330.58 -535.15,-431.87 -221.72,-100.89 -468.55,-150.74 -740.12,-150.74 -421.1,0 -768.83,119.23 -1044.38,359.29 -275.55,238.86 -413.13,539.54 -413.13,900.42 0,360.89 137.58,661.16 414.32,900.02 277.15,240.06 624.87,359.29 1043.18,359.29 291.5,0 549.9,-57.42 772.82,-171.87 223.31,-115.24 418.71,-293.89 587.79,-536.35l410.73 283.13z"/>
    <path id="_7_10" class="fil1" d="M146539.2 26724.37l1868.24 0 -937.91 -1879 -930.33 1879zm-1368.58 1637.35l2079.59 -4243.31 438.25 0 2103.51 4243.31 -573.43 0 -576.22 -1141.68 -2344.77 0 -561.47 1141.68 -565.46 0z"/>
    <path id="_8_11" class="fil1" d="M150877.02 26448.82l1745.02 0c177.05,0 312.24,-38.28 405.55,-115.64 92.91,-77.36 140.37,-187.42 140.37,-331.78 0,-143.16 -47.45,-253.22 -140.37,-328.19 -93.31,-76.17 -228.5,-114.05 -405.55,-114.05l-1745.02 0 0 889.66zm0 480.12l0 1432.78 -512.02 0 0 -3275.1 2257.04 0c335.76,0 598.15,81.35 788.37,242.85 190.21,161.5 284.72,385.61 284.72,673.12 0,232.08 -74.57,434.26 -225.7,604.93 -149.54,170.67 -344.94,275.55 -586.19,313.43l914.38 1440.76 -557.48 0 -931.93 -1432.78 -1431.19 0z"/>
    <polygon id="_9_12" class="fil1" points="155403.46,28361.72 155403.46,25535.64 154018.13,25535.64 154018.13,25079.04 157300.81,25079.04 157300.81,25535.64 155915.08,25535.64 155915.08,28361.72 "/>
    <path class="fil1" d="M170090.56 24655.55l-1292.41 0 0 3267.12 1292.41 0c521.99,0 934.32,-147.15 1233.4,-439.44 300.27,-293.89 449.81,-690.27 449.81,-1190.33 0,-491.68 -151.93,-888.06 -457.79,-1187.14 -304.26,-300.67 -713.8,-450.21 -1225.42,-450.21zm0 -488.09c667.94,0 1205.88,196.99 1613.82,591.77 407.94,394.78 612.51,908 612.51,1541.64 0,637.63 -200.58,1149.26 -602.14,1534.07 -402.76,384.41 -943.49,575.82 -1624.19,575.82l-1819.99 0 0 -4243.31 1819.99 0z"/>
    <polygon id="_1_13" class="fil1" points="173166.27,28410.77 173166.27,25128.09 176244.38,25128.09 176244.38,25608.21 173677.89,25608.21 173677.89,26426.89 175362.7,26426.89 175362.7,26899.43 173677.89,26899.43 173677.89,27938.22 176385.94,27938.22 176385.94,28410.77 "/>
    <polygon id="_2_14" class="fil1" points="178550.86,28410.77 178285.68,28410.77 176637.56,25128.09 177183.48,25128.09 178416.87,27584.12 179631.93,25128.09 180196.19,25128.09 "/>
    <polygon id="_3_15" class="fil1" points="180835.41,28410.77 180835.41,25128.09 183913.52,25128.09 183913.52,25608.21 181347.04,25608.21 181347.04,26426.89 183031.84,26426.89 183031.84,26899.43 181347.04,26899.43 181347.04,27938.22 184055.08,27938.22 184055.08,28410.77 "/>
    <polygon id="_4_16" class="fil1" points="184787.23,28410.77 184787.23,25128.09 185298.85,25128.09 185298.85,27938.22 187739.32,27938.22 187739.32,28410.77 "/>
    <path id="_5_17" class="fil1" d="M189909.43 28032.73c438.25,0 796.34,-118.04 1073.49,-355.3 276.75,-236.47 414.32,-537.94 414.32,-904.01 0,-363.68 -138.77,-663.95 -417.11,-902.82 -277.94,-237.67 -634.84,-356.9 -1070.7,-356.9 -435.46,0 -791.16,118.04 -1066.71,355.7 -275.55,236.07 -413.13,537.94 -413.13,904.01 0,366.07 137.58,667.54 413.13,904.01 275.55,237.27 631.25,355.3 1066.71,355.3zm0 480.52c-583.8,0 -1065.51,-165.49 -1441.95,-496.07 -376.44,-329.38 -565.46,-744.1 -565.46,-1243.76 0,-501.25 187.42,-915.97 563.06,-1242.57 376.44,-326.99 857.75,-489.69 1444.34,-489.69 591.77,0 1075.88,162.7 1452.72,488.09 375.24,325.4 562.66,740.12 562.66,1244.16 0,502.45 -189.02,917.17 -565.46,1246.16 -376.44,329.38 -859.35,493.68 -1449.93,493.68z"/>
    <path id="_6_18" class="fil1" d="M193279.03 26497.87l1873.42 0c174.66,0 309.84,-38.28 402.76,-115.64 93.31,-77.36 140.37,-187.42 140.37,-331.78 0,-140.37 -44.26,-249.23 -134.78,-326.99 -89.32,-77.36 -218.13,-115.24 -384.81,-115.24l-1896.95 0 0 889.66zm0 480.12l0 1432.78 -512.02 0 0 -3282.67 2385.44 0c338.56,0 600.95,79.75 788.77,240.06 187.42,159.91 281.93,385.61 281.93,675.52 0,274.35 -92.91,498.86 -279.54,673.12 -187.42,174.66 -432.67,261.19 -736.13,261.19l-1928.45 0z"/>
    <polygon id="_7_19" class="fil1" points="196948.91,28410.77 196948.91,25128.09 197375.2,25128.09 198718.65,27048.97 200064.9,25128.09 200491.59,25128.09 200491.59,28410.77 199979.56,28410.77 199979.56,26050.45 198718.65,27875.62 197460.53,26050.45 197460.53,28410.77 "/>
    <polygon id="_8_20" class="fil1" points="201616.12,28410.77 201616.12,25128.09 204694.22,25128.09 204694.22,25608.21 202127.74,25608.21 202127.74,26426.89 203812.54,26426.89 203812.54,26899.43 202127.74,26899.43 202127.74,27938.22 204835.79,27938.22 204835.79,28410.77 "/>
    <polygon id="_9_21" class="fil1" points="205575.5,28410.77 205575.5,25128.09 205844.67,25128.09 207929.44,27434.58 207929.44,25128.09 208433.49,25128.09 208433.49,28410.77 208164.32,28410.77 206079.55,26111.86 206079.55,28410.77 "/>
    <polygon id="_10" class="fil1" points="210337.22,28410.77 210337.22,25584.68 208951.89,25584.68 208951.89,25128.09 212234.56,25128.09 212234.56,25584.68 210848.84,25584.68 210848.84,28410.77 "/>
    <path class="fil1" d="M163509.66 27539.85l-1306.77 -1533.67c-348.92,149.54 -610.12,323.8 -784.78,524.78 -174.26,200.58 -261.19,427.48 -261.19,678.31 0,268.77 93.31,486.5 281.13,654.78 186.23,167.88 431.47,251.62 733.34,251.62 228.1,0 455.4,-48.25 679.5,-144.35 224.51,-95.7 443.43,-240.06 658.77,-431.47zm1126.92 -414.72c-59.02,81.35 -123.22,161.5 -192.61,237.67 -68.19,77.36 -144.35,150.74 -227.3,222.91l758.46 876.5 -677.11 0 -473.34 -533.95c-286.32,237.27 -560.27,410.73 -820.27,519.6 -259.6,108.86 -533.95,163.89 -823.86,163.89 -478.92,0 -862.14,-126.01 -1150.85,-376.44 -287.11,-250.83 -431.47,-585.39 -431.47,-1002.51 0,-333.37 103.68,-629.66 311.04,-889.66 206.96,-261.19 528.77,-498.46 963.03,-713.8l-1164.01 -1378.95 2785.41 0 292.7 464.57 -1991.86 0 2077.19 2448.45c110.06,-110.46 195.4,-199.78 257.21,-266.38 61.81,-68.19 118.04,-136.78 169.08,-206.16l338.56 434.26z"/>
   </g>
  </g>
 </g>
</svg>
